<?xml version="1.0" standalone="no"?>
<!DOCTYPE svg PUBLIC "-//W3C//DTD SVG 20010904//EN"
 "http://www.w3.org/TR/2001/REC-SVG-20010904/DTD/svg10.dtd">
<svg version="1.0" xmlns="http://www.w3.org/2000/svg"
 width="224.000000pt" height="225.000000pt" viewBox="0 0 224.000000 225.000000"
 preserveAspectRatio="xMidYMid meet">

<g transform="translate(0.000000,225.000000) scale(0.100000,-0.100000)"
fill="#000000" stroke="none">
<path d="M1894 1055 c-18 -14 -18 -14 4 -8 12 3 22 9 22 14 0 12 -3 11 -26 -6z"/>
<path d="M1020 1032 c0 -6 43 -50 95 -98 52 -48 92 -91 88 -95 -5 -4 -51 -25
-104 -47 l-97 -40 -43 29 c-59 39 -70 37 -29 -6 28 -29 31 -37 20 -50 -10 -12
-10 -15 5 -15 15 0 17 -7 12 -50 -3 -27 -4 -50 -1 -50 2 0 15 23 27 52 l23 52
107 22 107 21 0 -21 c0 -12 -9 -57 -19 -101 -27 -117 -31 -145 -22 -145 19 0
42 42 92 167 53 131 53 131 93 143 53 16 149 64 164 83 10 12 9 16 -8 20 -23
6 -134 -8 -189 -23 -32 -9 -41 -5 -151 70 -113 76 -170 104 -170 82z"/>
<path d="M1823 1023 c0 -7 4 -10 8 -7 4 2 10 -2 12 -8 4 -8 6 -7 6 4 1 9 7 18
14 21 6 2 0 4 -14 3 -14 0 -26 -6 -26 -13z"/>
<path d="M1729 997 c12 -15 10 -18 -10 -27 -23 -10 -23 -10 3 -5 16 3 28 0 31
-8 3 -7 6 -5 6 5 1 9 9 22 19 28 16 11 16 11 -1 6 -10 -3 -28 -1 -40 6 -20 10
-21 10 -8 -5z"/>
<path d="M1603 952 c18 -20 18 -20 -5 -28 -13 -4 -26 -7 -30 -6 -4 1 -5 -5 -1
-14 3 -9 9 -12 12 -6 3 5 17 11 30 15 21 5 23 3 18 -26 -5 -31 -5 -31 10 5 9
21 24 40 34 43 11 4 19 10 19 15 0 6 -10 6 -22 1 -16 -6 -33 -4 -53 7 -30 15
-30 15 -12 -6z"/>
<path d="M853 724 c19 -23 14 -34 -15 -34 -10 0 -18 -4 -18 -9 0 -4 11 -6 25
-3 19 3 25 0 26 -14 0 -17 1 -17 11 2 5 12 20 27 32 32 20 10 19 11 -8 11 -16
1 -39 9 -50 19 -21 17 -21 17 -3 -4z"/>
<path d="M749 688 c10 -13 10 -18 2 -18 -8 0 -8 -4 1 -14 10 -11 15 -11 23 -1
5 7 17 15 25 18 9 3 4 6 -10 6 -15 1 -32 7 -40 14 -12 10 -12 9 -1 -5z"/>
<path d="M652 653 c-10 -10 -10 -13 2 -13 10 0 13 -6 10 -17 -5 -17 -5 -17 6
-1 6 10 18 21 27 26 13 8 11 10 -9 14 -13 2 -30 -1 -36 -9z"/>
<path d="M570 640 c0 -5 -8 -10 -17 -12 -15 -3 -15 -5 3 -10 11 -3 28 0 38 7
15 12 15 13 -4 18 -11 3 -20 1 -20 -3z"/>
<path d="M492 621 c-11 -7 -11 -9 2 -14 10 -4 16 -1 16 8 0 17 -1 17 -18 6z"/>
<path d="M428 603 c7 -3 16 -2 19 1 4 3 -2 6 -13 5 -11 0 -14 -3 -6 -6z"/>
</g>
</svg>
